# File created by Blade
# Date/Time:  Tue Sep 30 19:36:22 2014
#---------------------------------------------------------
:version 1.10
:name HOM
:units
  mass 1.0
  length 1.000000
  angle deg
:documentation
     Acclaim Skeleton File
:root
   axis xyz
   order TX TY TZ RX RY RZ
   position 0.000000 0.000000 0.000000
   orientation 0 0 0
:bonedata
   begin
      id 1
      name Spine_dum
      direction 0.000000 1.000000 0.000000
      length 3.241213
      axis 0.0 0.0 0.0 xyz
   end
   begin
      id 2
      name LeftUpLeg_dum
      direction 1.000000 0.000000 0.000000
      length 3.434019
      axis 0.0 0.0 0.0 xyz
   end
   begin
      id 3
      name RightUpLeg_dum
      direction -1.000000 0.000000 0.000000
      length 3.434019
      axis 0.0 0.0 0.0 xyz
   end
   begin
      id 4
      name Spine
      direction 0.000000 1.000000 0.000000
      length 0.000000
      axis 0.0 0.0 0.0 xyz
      dof rx ry rz
   end
   begin
      id 5
      name Spine_dum1
      direction 0.000000 1.000000 0.000000
      length 18.382958
      axis 0.0 0.0 0.0 xyz
   end
   begin
      id 6
      name Spine_dum2
      direction 0.000000 1.000000 0.000000
      length 12.828261
      axis 0.0 0.0 0.0 xyz
   end
   begin
      id 7
      name Spine_dum3
      direction 0.000000 1.000000 0.000000
      length 12.828261
      axis 0.0 0.0 0.0 xyz
   end
   begin
      id 8
      name Head
      direction 0.000000 1.000000 0.000000
      length 4.527550
      axis 0.0 0.0 0.0 xyz
      dof rx ry rz
   end
   begin
      id 9
      name LeftShoulder
      direction 1.000000 0.000000 0.000000
      length 7.748055
      axis 0.0 0.0 -90.0 xyz
      dof rx ry rz
   end
   begin
      id 10
      name LeftArm
      direction 1.000000 0.000000 0.000000
      length 10.635614
      axis 0.0 0.0 -90.0 xyz
      dof rx ry rz
   end
   begin
      id 11
      name LeftForeArm
      direction 1.000000 0.000000 0.000000
      length 8.346755
      axis 0.0 0.0 -90.0 xyz
      dof ry rz rx
   end
   begin
      id 12
      name LeftHand
      direction 0.000000 0.000000 0.000000
      length 0.000000
      axis 0.0 0.0 -90.0 xyz
      dof rx ry rz
   end
   begin
      id 13
      name LeftHand_dum1
      direction 0.000000 0.000000 0.000000
      length 0.000000
      axis 0.0 0.0 -90.0 xyz
   end
   begin
      id 14
      name LeftHand_dum2
      direction 1.000000 0.000000 0.000000
      length 3.937000
      axis 0.0 0.0 -90.0 xyz
   end
   begin
      id 15
      name LeftHandThumb1
      direction 0.000000 0.000000 1.000000
      length 3.937000
      axis 0.0 0.0 -90.0 xyz
      dof rx rz ry
   end
   begin
      id 16
      name RightShoulder
      direction -1.000000 0.000000 0.000000
      length 7.748055
      axis 0.0 0.0 90.0 xyz
      dof rx ry rz
   end
   begin
      id 17
      name RightArm
      direction -1.000000 0.000000 0.000000
      length 10.635614
      axis 0.0 0.0 90.0 xyz
      dof rx ry rz
   end
   begin
      id 18
      name RightForeArm
      direction -1.000000 0.000000 0.000000
      length 8.346755
      axis 0.0 0.0 90.0 xyz
      dof ry rz rx
   end
   begin
      id 19
      name RightHand
      direction 0.000000 0.000000 0.000000
      length 0.000000
      axis 0.0 0.0 90.0 xyz
      dof rx ry rz
   end
   begin
      id 20
      name RightHand_dum1
      direction 0.000000 0.000000 0.000000
      length 0.000000
      axis 0.0 0.0 90.0 xyz
   end
   begin
      id 21
      name RightHand_dum2
      direction -1.000000 0.000000 0.000000
      length 3.937000
      axis 0.0 0.0 90.0 xyz
   end
   begin
      id 22
      name RightHandThumb1
      direction 0.000000 0.000000 1.000000
      length 3.937000
      axis 0.0 0.0 90.0 xyz
      dof rx rz ry
   end
   begin
      id 23
      name LeftUpLeg
      direction 0.000000 -1.000000 0.000000
      length 15.713025
      axis 0.0 0.0 0.0 xyz
      dof rx ry rz
   end
   begin
      id 24
      name LeftLeg
      direction 0.000000 -1.000000 0.000000
      length 14.435119
      axis 0.0 0.0 0.0 xyz
      dof rx ry rz
   end
   begin
      id 25
      name LeftFoot
      direction 0.000000 -0.258819 0.965926
      length 4.938895
      axis 15.0 0.0 0.0 xyz
      dof rx ry rz
   end
   begin
      id 26
      name LeftToeBase
      direction 0.000000 0.000000 1.000000
      length 2.952750
      axis 0.0 0.0 0.0 xyz
      dof rx ry rz
   end
   begin
      id 27
      name RightUpLeg
      direction 0.000000 -1.000000 0.000000
      length 15.713025
      axis 0.0 0.0 0.0 xyz
      dof rx ry rz
   end
   begin
      id 28
      name RightLeg
      direction 0.000000 -1.000000 0.000000
      length 14.435119
      axis 0.0 0.0 0.0 xyz
      dof rx ry rz
   end
   begin
      id 29
      name RightFoot
      direction 0.000000 -0.258819 0.965926
      length 4.938895
      axis 15.0 0.0 0.0 xyz
      dof rx ry rz
   end
   begin
      id 30
      name RightToeBase
      direction 0.000000 0.000000 1.000000
      length 2.952750
      axis 0.0 0.0 0.0 xyz
      dof rx ry rz
   end
:hierarchy
   begin
      root Spine_dum LeftUpLeg_dum RightUpLeg_dum
      Spine_dum Spine
      LeftUpLeg_dum LeftUpLeg
      RightUpLeg_dum RightUpLeg
      Spine Spine_dum1 Spine_dum2 Spine_dum3
      Spine_dum1 Head
      Spine_dum2 LeftShoulder
      Spine_dum3 RightShoulder
      LeftShoulder LeftArm
      LeftArm LeftForeArm
      LeftForeArm LeftHand
      LeftHand LeftHand_dum1 LeftHand_dum2
      LeftHand_dum1 LeftHandThumb1
      RightShoulder RightArm
      RightArm RightForeArm
      RightForeArm RightHand
      RightHand RightHand_dum1 RightHand_dum2
      RightHand_dum1 RightHandThumb1
      LeftUpLeg LeftLeg
      LeftLeg LeftFoot
      LeftFoot LeftToeBase
      RightUpLeg RightLeg
      RightLeg RightFoot
      RightFoot RightToeBase
   end

# File created by Blade
# Date/Time:  Tue Sep 23 19:18:47 2014
# Frame Rate: 120.000 fps
#------------------------------------------------------
:FULLY-SPECIFIED
:DEGREES
841
root -12.585538 32.182767 5.448725 47.612120 11.721054 5.828920
Spine -29.177092 -5.015095 7.678079
Head -10.076986 -0.640563 -10.347398
LeftShoulder -17.208480 43.830945 17.825417
LeftArm 53.367498 -35.198757 -91.748992
LeftForeArm -14.169614 -0.000000 67.852478
LeftHand -56.371142 -0.000000 4.640587
LeftHandThumb1 -26.253704 0.000000 33.147579
RightShoulder -16.775094 -46.067696 -18.190532
RightArm 50.893325 17.580559 73.100914
RightForeArm 35.118166 -0.000000 8.901838
RightHand 17.543804 -0.000000 -9.048715
RightHandThumb1 -24.326973 -0.000000 -32.862282
LeftUpLeg -47.338668 11.278569 7.914598
LeftLeg 10.162325 -0.000000 -0.000000
LeftFoot 9.549757 3.193836 -6.728497
LeftToeBase -2.129749 -0.000000 0.000000
RightUpLeg -57.267533 -13.707471 -0.370251
RightLeg 22.820928 -0.000000 -0.000000
RightFoot -15.290594 -6.856548 19.662730
RightToeBase 14.050289 -0.000000 -0.000000
842
root -12.520067 32.190498 5.438474 47.540057 11.582661 5.810698
Spine -29.267978 -4.916521 7.482834
Head -10.595568 -0.764614 -10.145472
LeftShoulder -17.163433 43.765288 17.823119
LeftArm 53.371142 -35.080543 -91.530379
LeftForeArm -13.793557 -0.000000 67.914817
LeftHand -56.523013 -0.000000 4.729299
LeftHandThumb1 -26.253704 0.000000 33.147579
RightShoulder -16.764837 -45.994950 -18.275398
RightArm 50.773471 17.463922 72.977979
RightForeArm 35.458571 -0.000000 8.234779
RightHand 17.594861 -0.000000 -8.756982
RightHandThumb1 -24.326973 -0.000000 -32.862282
LeftUpLeg -47.113901 11.017887 8.148482
LeftLeg 10.125307 -0.000000 -0.000000
LeftFoot 8.626840 2.486135 -6.866156
LeftToeBase -2.719210 -0.000000 0.000000
RightUpLeg -57.094936 -13.777262 -0.456923
RightLeg 22.539391 -0.000000 -0.000000
RightFoot -15.100460 -6.789843 19.679311
RightToeBase 14.061178 -0.000000 -0.000000
843
root -12.450972 32.197332 5.425758 47.513433 11.487501 5.806585
Spine -29.403953 -4.874188 7.318200
Head -11.138086 -0.925629 -9.938312
LeftShoulder -17.125003 43.630471 17.836108
LeftArm 53.214876 -34.961415 -91.140322
LeftForeArm -13.794552 0.000000 67.957583
LeftHand -56.529459 -0.000000 5.148807
LeftHandThumb1 -26.253704 0.000000 33.147579
RightShoulder -16.731601 -45.887210 -18.396104
RightArm 50.611611 17.326898 72.837433
RightForeArm 35.886034 -0.000000 7.596774
RightHand 17.644634 -0.000000 -8.448819
RightHandThumb1 -24.326973 -0.000000 -32.862282
LeftUpLeg -46.977754 10.731967 8.370866
LeftLeg 10.135507 -0.000000 -0.000000
LeftFoot 7.632224 1.629183 -6.675839
LeftToeBase -2.825410 -0.000000 0.000000
RightUpLeg -56.990520 -13.954146 -0.449775
RightLeg 22.270602 -0.000000 -0.000000
RightFoot -14.890794 -6.645438 19.667282
RightToeBase 14.127174 -0.000000 -0.000000
844
root -12.383363 32.201985 5.413776 47.496557 11.423777 5.769325
Spine -29.559377 -4.839788 7.182230
Head -11.687720 -1.063783 -9.659808
LeftShoulder -17.120171 43.578575 17.826501
LeftArm 53.311917 -34.853512 -91.041431
LeftForeArm -13.418646 -0.000000 67.999590
LeftHand -56.586304 -0.000000 5.319966
LeftHandThumb1 -26.253704 0.000000 33.147579
RightShoulder -16.690617 -45.830116 -18.503933
RightArm 50.459646 17.295771 72.819905
RightForeArm 36.210150 -0.000000 7.096206
RightHand 17.576130 -0.000000 -8.114847
RightHandThumb1 -24.326973 -0.000000 -32.862282
LeftUpLeg -46.868440 10.483312 8.601612
LeftLeg 10.124471 -0.000000 -0.000000
LeftFoot 6.943804 0.878489 -7.034228
LeftToeBase -3.547916 -0.000000 0.000000
RightUpLeg -56.889445 -14.110533 -0.404624
RightLeg 21.990118 -0.000000 -0.000000
RightFoot -14.694506 -6.527477 19.632146
RightToeBase 14.180573 -0.000000 -0.000000
845
root -12.308448 32.201862 5.400843 47.410963 11.280456 5.721927
Spine -29.638474 -4.768177 6.968454
Head -12.201864 -1.222726 -9.312436
LeftShoulder -17.116200 43.472494 17.826767
LeftArm 53.326591 -34.723453 -90.823678
LeftForeArm -13.154488 -0.000000 68.113371
LeftHand -56.601904 -0.000000 5.714731
LeftHandThumb1 -26.253704 0.000000 33.147579
RightShoulder -16.635563 -45.780494 -18.597280
RightArm 50.282841 17.271598 72.766004
RightForeArm 36.604562 -0.000000 6.625642
RightHand 17.615878 -0.000000 -7.841369
RightHandThumb1 -24.326973 -0.000000 -32.862282
LeftUpLeg -46.667863 10.319579 8.747091
LeftLeg 10.048248 -0.000000 -0.000000
LeftFoot 6.358257 0.091287 -7.217855
LeftToeBase -4.083658 -0.000000 0.000000
RightUpLeg -56.754905 -14.211127 -0.437778
RightLeg 21.767098 -0.000000 -0.000000
RightFoot -14.501043 -6.414455 19.576219
RightToeBase 14.177590 -0.000000 -0.000000
846
root -12.230525 32.201958 5.387012 47.325540 11.178968 5.664369
Spine -29.721429 -4.705838 6.786143
Head -12.707817 -1.525498 -8.961273
LeftShoulder -17.100836 43.373299 17.794618
LeftArm 53.386912 -34.615178 -90.586057
LeftForeArm -12.827770 0.000000 68.217266
LeftHand -56.697056 0.000000 5.919026
LeftHandThumb1 -26.253704 0.000000 33.147579
RightShoulder -16.599686 -45.683632 -18.687537
RightArm 50.072573 17.284977 72.737512
RightForeArm 36.941455 -0.000000 6.190060
RightHand 17.584024 -0.000000 -7.543507
RightHandThumb1 -24.326973 -0.000000 -32.862282
LeftUpLeg -46.526579 10.216425 8.831463
LeftLeg 10.040406 -0.000000 -0.000000
LeftFoot 6.019581 -0.669486 -7.455680
LeftToeBase -4.698048 -0.000000 0.000000
RightUpLeg -56.626313 -14.384682 -0.388805
RightLeg 21.526792 -0.000000 -0.000000
RightFoot -14.270744 -6.239816 19.525085
RightToeBase 14.200327 -0.000000 -0.000000
847
root -12.151650 32.197680 5.373027 47.238227 11.142848 5.598930
Spine -29.830504 -4.712673 6.659197
Head -13.168306 -1.648914 -8.581117
LeftShoulder -17.075714 43.271231 17.772067
LeftArm 53.463374 -34.539608 -90.418873
LeftForeArm -12.532931 -0.000000 68.381521
LeftHand -56.754533 -0.000000 6.110700
LeftHandThumb1 -26.253704 0.000000 33.147579
RightShoulder -16.528304 -45.744130 -18.781910
RightArm 49.969624 17.324514 72.725639
RightForeArm 37.258625 -0.000000 5.806156
RightHand 17.537971 -0.000000 -7.349772
RightHandThumb1 -24.326973 -0.000000 -32.862282
LeftUpLeg -46.383595 10.071264 8.976858
LeftLeg 9.994430 -0.000000 -0.000000
LeftFoot 5.774354 -1.326819 -7.732793
LeftToeBase -4.894872 -0.000000 0.000000
RightUpLeg -56.503453 -14.578268 -0.317657
RightLeg 21.331034 -0.000000 -0.000000
RightFoot -14.063958 -6.064882 19.475752
RightToeBase 14.127901 -0.000000 -0.000000
